<?xml version="1.0" standalone="no"?>
<!DOCTYPE svg PUBLIC "-//W3C//DTD SVG 20010904//EN"
 "http://www.w3.org/TR/2001/REC-SVG-20010904/DTD/svg10.dtd">
<svg version="1.0" xmlns="http://www.w3.org/2000/svg"
 width="480.000000pt" height="480.000000pt" viewBox="0 0 480.000000 480.000000"
 preserveAspectRatio="xMidYMid meet">
<metadata>
Created by potrace 1.14, written by Peter Selinger 2001-2017
</metadata>
<g transform="translate(0.000000,480.000000) scale(0.100000,-0.100000)"
fill="#000000" stroke="none">
<path d="M0 2400 l0 -2400 600 0 600 0 0 150 0 150 150 0 150 0 0 300 0 300
300 0 300 0 0 -150 0 -150 450 0 450 0 0 150 0 150 300 0 300 0 0 -300 0 -300
150 0 150 0 0 -150 0 -150 450 0 450 0 0 2400 0 2400 -2400 0 -2400 0 0 -2400z
m4200 750 l0 -450 -150 0 -150 0 0 -150 0 -150 -150 0 -150 0 0 -300 0 -300
-150 0 -150 0 0 -300 0 -300 -150 0 -150 0 0 -150 0 -150 -450 0 -450 0 0 150
0 150 -300 0 -300 0 0 150 0 150 -150 0 -150 0 0 600 0 600 150 0 150 0 0 150
0 150 150 0 150 0 0 150 0 150 300 0 300 0 0 150 0 150 900 0 900 0 0 -450z"/>
<path d="M2100 2550 l0 -150 -150 0 -150 0 0 -150 0 -150 300 0 300 0 0 150 0
150 150 0 150 0 0 150 0 150 -300 0 -300 0 0 -150z"/>
<path d="M2400 1650 l0 -150 150 0 150 0 0 150 0 150 -150 0 -150 0 0 -150z"/>
</g>
</svg>
